<?xml version="1.0" encoding="utf-8"?>
<!-- Generator: Adobe Illustrator 23.0.1, SVG Export Plug-In . SVG Version: 6.00 Build 0)  -->
<svg version="1.1" xmlns="http://www.w3.org/2000/svg" xmlns:xlink="http://www.w3.org/1999/xlink" x="0px" y="0px"
	 viewBox="0 0 1920 1080" style="enable-background:new 0 0 1920 1080;" xml:space="preserve">
<style type="text/css">
	.st0{display:none;}
	.st1{fill:#B3B3B3;}
	.st2{fill:#F2F2F2;stroke:#FFFFFF;stroke-width:3;stroke-miterlimit:10;}
	.st3{fill:#39B54A;}
	.st4{fill:#2E3192;}
	.st5{fill:#4854AA;}
	.st6{fill:#1B1464;}
	.st7{fill:none;stroke:#FFFFFF;stroke-width:22;stroke-miterlimit:10;}
	.st8{opacity:0.68;}
	.st9{fill:#FFFFFF;}
	.st10{fill:#999999;stroke:#666666;stroke-width:5;stroke-miterlimit:10;}
	.st11{fill:#666666;}
	.st12{fill:#009245;}
	.st13{fill:#FF00FF;}
	.st14{fill:none;}
	.st15{font-family:'GTAmericaTrial-Medium';}
	.st16{font-size:34px;}
</style>
<g id="Layer_1" class="st0">
	
		<image style="display:inline;overflow:visible;" width="2928" height="1856" xlink:href="../../../../../../../../Screen Shot 2019-05-08 at 9.34.35 AM.png"  transform="matrix(0.6663 0 0 0.6663 -31 -132)">
	</image>
</g>
<g id="Layer_6">
</g>
<g id="Layer_5">
	<rect x="-55" y="-61" class="st1" width="2030" height="1183"/>
	<rect x="838" y="730" class="st2" width="91" height="35"/>
</g>
<g id="Layer_2">
	<rect x="280" y="167" class="st3" width="1335" height="679"/>
</g>
<g id="Layer_4">
	<rect x="293" y="865" class="st4" width="115" height="215"/>
	<rect x="416" y="890" class="st5" width="148" height="190"/>
	<rect x="542" y="859" class="st6" width="162" height="223"/>
	<rect x="714" y="880" class="st4" width="156" height="200"/>
	<rect x="960" y="873" class="st4" width="232" height="207"/>
	<rect x="1192" y="898" class="st5" width="337" height="182"/>
	<rect x="1529" y="853" class="st6" width="86" height="227"/>
	<rect x="1656" y="873" class="st6" width="165" height="152"/>
	<rect x="1631" y="1007" class="st6" width="190" height="77"/>
	<rect x="1813" y="853" class="st4" width="107" height="227"/>
	<rect x="-31" y="865" class="st4" width="280" height="259"/>
	<rect x="-23" y="540" class="st5" width="254" height="201"/>
	<rect x="-31" y="715" class="st6" width="294" height="100"/>
	<rect x="-31" y="174" class="st5" width="280" height="178"/>
	<rect x="-92" y="371" class="st4" width="341" height="110"/>
	<rect x="-41" y="352" class="st6" width="129" height="129"/>
	<rect x="-23" y="-14" class="st6" width="272" height="151"/>
	<rect x="280" class="st4" width="311" height="149"/>
	<rect x="655" y="0" class="st4" width="183" height="137"/>
	<rect x="815" y="-39" class="st5" width="97" height="152"/>
	<rect x="969" y="-14" class="st5" width="107" height="163"/>
	<rect x="1076" y="-39" class="st6" width="167" height="167"/>
	<rect x="1294" y="-14" class="st6" width="115" height="151"/>
	<rect x="1375" y="-14" class="st4" width="226" height="117"/>
	<rect x="1631" y="-14" class="st5" width="300" height="151"/>
	<rect x="1631" y="201" class="st6" width="322" height="259"/>
	<rect x="1631" y="530" class="st5" width="322" height="109"/>
	<rect x="1676" y="594" class="st4" width="291" height="205"/>
</g>
<g id="Layer_8">
	<line class="st7" x1="-33" y1="153" x2="1942" y2="153"/>
	<line class="st7" x1="-28" y1="844" x2="1947" y2="844"/>
	<line class="st7" x1="275" y1="-98" x2="257" y2="1102"/>
	<line class="st7" x1="1613.1" y1="-60" x2="1634.9" y2="1140"/>
	<line class="st7" x1="899" y1="849" x2="903" y2="1080"/>
	<line class="st7" x1="940" y1="-71" x2="944" y2="160"/>
	<line class="st7" x1="621" y1="-78" x2="625" y2="153"/>
	<line class="st7" x1="1269" y1="-71" x2="1273" y2="160"/>
</g>
<g id="Layer_7">
	<g class="st8">
		<g>
			<path class="st9" d="M260,533.1c64.3,13.2,125-21.8,188.6-24.3c34.5-1.3,68.9,3.4,103.5,3.7c33.5,0.3,66.6-5,99.3-11.3
				c36.8-7.1,73.6-15.2,111.3-16.5c9.6-0.3,9.7-15.3,0-15c-66.3,2.3-129.8,25.5-196,27.7c-34.2,1.1-68.3-3.5-102.5-3.8
				c-33-0.3-64.4,6.2-96.3,14.3c-33.8,8.6-69,17.9-103.9,10.7C254.5,516.7,250.5,531.2,260,533.1L260,533.1z"/>
		</g>
	</g>
	<g class="st8">
		<g>
			<path class="st9" d="M266.7,174.2c51.2,47.9,102.4,95.8,153.5,143.8c12,11.3,24,22.8,34.8,35.3c9.5,11,17.9,22.9,26.3,34.7
				c16.6,23.2,33.7,46.2,57.4,62.6c20.7,14.3,50.6,25.6,59.7,51.3c3.2,9,17.7,5.2,14.5-4c-8.7-24.7-31.2-38.1-52.4-51.2
				c-11.4-7-22.2-14.3-31.8-23.7c-10.2-10-18.9-21.2-27.3-32.6c-8.7-12-17.1-24.2-26.2-35.9c-10-12.9-21.2-24.8-32.9-36.1
				c-25.1-24.4-51-47.9-76.5-71.9c-29.5-27.6-59-55.3-88.6-82.9C270.2,156.9,259.6,167.5,266.7,174.2L266.7,174.2z"/>
		</g>
	</g>
	<g class="st8">
		<g>
			<path class="st9" d="M620.3,162.7c6.3,49.9-7.4,100.6,3.7,150c5.6,25,18.9,46.2,34.3,66.3c13.8,18,28.6,35.3,45.6,50.4
				c19.3,17.2,41,31.2,65.5,39.7c9.1,3.2,13.1-11.3,4-14.5c-41.1-14.3-72.9-46.2-99.3-79.7c-14.6-18.5-28.2-38.1-34.4-61.2
				c-6-22.5-5.6-46.1-4.6-69.2c1.2-27.3,3.6-54.6,0.2-81.8c-0.5-4-3.1-7.5-7.5-7.5C624.2,155.2,619.8,158.6,620.3,162.7L620.3,162.7
				z"/>
		</g>
	</g>
	<g class="st8">
		<g>
			<path class="st9" d="M893.7,367.6c-5.9-29.6,8-58.8,22.7-83.7c15.2-25.8,32.7-51,39.4-80.6c4-17.8,4.7-36.2,5.3-54.3
				c0.3-9.7-14.7-9.6-15,0c-0.5,16.2-1,32.6-4.4,48.5c-3.2,15.1-9.3,29.1-16.7,42.5c-14.6,26.6-33,51.2-42.2,80.5
				c-5.2,16.6-7,34-3.5,51.1C881.2,381,895.6,377,893.7,367.6L893.7,367.6z"/>
		</g>
	</g>
	<g class="st8">
		<g>
			<path class="st9" d="M814.8,753.2c-16.5-11.2-36.3-17.3-56.3-17.1c-21,0.2-40.4,8.2-60.3,13.9c-18.4,5.3-36.3,6.2-55,2.1
				c-18.2-4-35.6-10.9-53.2-16.9c-17.3-6-35-11.2-53.4-12.3c-20.7-1.2-40.2,6.3-60.8,6.7c-9.8,0.2-18.8-2.2-26.7-8
				c-7.1-5.2-12.9-12.3-18-19.5c-11.4-16.1-21.3-33.4-29.7-51.3c-19.1-40.9-29.6-85.6-31.1-130.7c-0.3-9.6-15.3-9.7-15,0
				c1.3,41.3,9.8,82.3,25.4,120.6c7.7,19,17,37.4,27.9,54.8c9.9,15.8,21.1,33.1,37.9,42.3c19.4,10.7,41,5.9,61.6,2.2
				c19.6-3.6,38-2.2,57.1,3.1c35.9,9.9,70.8,29.2,109,26.6c23.9-1.6,45.5-12.6,68.8-17.1c22.3-4.3,45.2,0.8,63.9,13.6
				C815.2,771.6,822.7,758.6,814.8,753.2L814.8,753.2z"/>
		</g>
	</g>
	<g class="st8">
		<g>
			<path class="st9" d="M290.8,845.2c6.5-28.8,22.4-52.7,45-71.5c11.7-9.8,24.1-18.8,33.6-30.7c9.1-11.4,15.9-24.2,20.8-37.9
				c5.6-15.6,8.4-31.9,9.9-48.4c0.9-9.6-14.1-9.5-15,0c-2.6,27.3-9.9,56.2-27.9,77.6c-9.7,11.5-22,20.3-33.4,30
				c-11.3,9.5-21.2,20.4-29.1,32.8c-8.6,13.5-14.8,28.6-18.4,44.2C274.2,850.6,288.7,854.6,290.8,845.2L290.8,845.2z"/>
		</g>
	</g>
	<g class="st8">
		<g>
			<path class="st9" d="M377.3,739.1c5.7-0.9,12.3,4.1,17.3,6.2c6,2.6,12.2,4.4,18.7,5.4c13.3,2,26.8,0.8,39.4-3.9
				c9-3.3,5.1-17.8-4-14.5c-12.2,4.6-25.3,5.7-38.1,2.7c-12.9-3.1-23.6-12.5-37.4-10.3c-4,0.6-6.2,5.6-5.2,9.2
				C369.3,738.1,373.3,739.7,377.3,739.1L377.3,739.1z"/>
		</g>
	</g>
	<g class="st8">
		<g>
			<path class="st9" d="M425.2,698.5c43.3-8.9,71.9-47.7,98.8-79.5c26.5-31.4,53.4-63.7,86.3-88.8c18.4-14,38.7-25.6,60.8-32.7
				c9.1-3,5.2-17.4-4-14.5c-39.9,12.9-73.4,38.5-102.6,68c-29.5,29.8-54.4,63.7-83.1,94.2c-16.6,17.6-35.8,33.8-60.1,38.8
				C411.8,686,415.8,700.4,425.2,698.5L425.2,698.5z"/>
		</g>
	</g>
	<g class="st8">
		<g>
			<path class="st9" d="M367.2,517.8c-7.2-57.8,18.6-114.5,42-165.8c10.9-23.9,24.1-47.5,46-63c22.3-15.8,49.4-24.9,75.6-32.1
				c32.4-8.9,65.8-13.5,99.5-13.9c9.6-0.1,9.7-15.1,0-15c-31.2,0.3-62.3,4.2-92.6,11.6c-28.4,7-57.9,16.4-83,31.8
				c-24.3,15-40.9,37.2-53.4,62.4c-13.2,26.6-24.9,54.6-34.7,82.7c-11.3,32.4-18.6,66.8-14.3,101.2c0.5,4,3.1,7.5,7.5,7.5
				C363.4,525.3,367.8,521.8,367.2,517.8L367.2,517.8z"/>
		</g>
	</g>
	<g class="st8">
		<g>
			<path class="st9" d="M626.3,243.8c14.4,13.1,31.6,22,50.9,25.3c20.1,3.4,40.7,2.3,61,0.5c42.3-3.7,83.9-12.1,126-17.5
				c23.6-3,47.4-5,71.3-4.7c9.7,0.1,9.7-14.9,0-15c-40.8-0.5-81.3,5.7-121.5,12c-20.1,3.2-40.3,6.3-60.5,8.6
				c-19.7,2.2-39.9,4.1-59.8,2.9c-21.4-1.3-40.8-8.3-56.7-22.8C629.8,226.7,619.2,237.3,626.3,243.8L626.3,243.8z"/>
		</g>
	</g>
	<g class="st8">
		<g>
			<path class="st9" d="M936.1,248.3c56,13.3,99.5,54.2,151.9,76c43.6,18.2,100.9,21.6,136.4-15.3c8.2-8.5,13.9-18.9,19.6-29.2
				c5.2-9.5,10.6-19.9,19.5-26.4c10.1-7.5,23.4-8.5,35.5-9.7c14.7-1.6,29.5-2.8,44.4-2.5c25,0.6,48.7,6.9,69,21.8
				c17.1,12.4,30.2,29.8,40,48.3c24.1,45.4,27,96.5,26.1,146.9c-0.6,30.4-2.4,60.8-1.3,91.2c0.5,14.8,1.8,29.5,4,44.2
				c2.2,14.6,5.2,29,6.2,43.7c1,14,0.2,28.4-5.4,41.5c-4.4,10.3-11.3,19.2-19.5,26.7c-19.5,18-45.3,26.4-70.8,31.5
				c-14.3,2.8-28.7,4.7-43.2,6.6c-15.6,2.1-31.2,3.9-47,4.5c-14.9,0.6-29.8-0.1-44.4-2.8c-14.8-2.8-29.2-7.1-43.8-11
				c-58.4-15.6-118.5-14.3-178.4-12c-14.3,0.5-29,1.4-42.8,5.8c-13.6,4.4-25.2,12.4-35.7,21.9c-20.5,18.4-38.5,39.7-54.3,62.1
				c-7.8,11-14.9,22.5-21.5,34.2c-4.7,8.4,8.2,16,13,7.6c13.7-24.5,30-47.5,48.8-68.4c9.3-10.3,19.1-20.6,29.9-29.4
				c11.1-9.1,23.6-14.5,37.7-16.8c14.4-2.4,29.3-2.2,43.8-2.7c15.3-0.5,30.7-0.9,46.1-0.8c30.5,0.1,61.2,2,91.1,8.5
				c29.7,6.5,58.3,17.1,89,18.7c31,1.6,62.3-3.3,92.9-7.8c27.8-4,56.2-9.8,80.5-24.4c21-12.7,38.8-31.7,45.7-55.7
				c8.3-28.7,0.4-58.6-3.8-87.3c-4.4-30.3-3.9-61.1-3-91.7c1.6-54.3,4.6-109.9-13.8-162c-14.9-42.2-42.5-81.5-85.2-98.6
				c-26.9-10.8-56.7-10.3-85.1-7.7c-13.5,1.3-28,1.9-40.7,6.8c-11.8,4.5-20.5,12.6-27.6,22.9c-6.6,9.6-11.3,20.3-17.5,30.1
				c-6,9.5-14.1,17.2-23.7,22.9c-19.5,11.5-43.7,14.7-66,11.4c-57.2-8.5-101.9-50.3-153-73.9c-12.8-5.9-25.9-10.8-39.6-14.1
				C930.7,231.6,926.7,246.1,936.1,248.3L936.1,248.3z"/>
		</g>
	</g>
	<g class="st8">
		<g>
			<path class="st9" d="M1270.5,490.6c90.3,6.6,180.8,9.6,271.4,8.9c25-0.2,50.1-0.6,75,2.5c4,0.5,7.5-3.8,7.5-7.5
				c0-4.5-3.5-7-7.5-7.5c-22-2.7-44.1-2.7-66.2-2.5c-22.5,0.2-45,0.2-67.5,0c-45.4-0.5-90.8-1.8-136.2-4.1
				c-25.5-1.3-51-2.9-76.5-4.7C1260.9,474.9,1260.9,489.9,1270.5,490.6L1270.5,490.6z"/>
		</g>
	</g>
	<g class="st8">
		<g>
			<path class="st9" d="M1277.5,490.1c19.7-25.3,43-47.7,69.4-65.9c26.4-18.1,56.2-30.7,81.2-50.9c24.5-19.8,40.8-47.2,57-73.7
				c16-26.2,33.6-50.7,55.3-72.5c24.3-24.5,52.2-45.1,82.7-61.3c8.5-4.5,1-17.5-7.6-13c-54.9,29.2-101.1,72.6-134.5,125
				c-16.6,26.1-31,54.1-53.4,75.9c-23.1,22.5-53.6,35-80.5,52.3c-30.7,19.8-57.9,44.7-80.3,73.4c-2.5,3.2-3.1,7.5,0,10.6
				C1269.5,492.7,1275,493.3,1277.5,490.1L1277.5,490.1z"/>
		</g>
	</g>
	<g class="st8">
		<g>
			<path class="st9" d="M1265.6,497.5c87.7,91.2,176.5,181.4,266.3,270.6c25.6,25.4,51.2,50.8,77,76c6.9,6.8,17.5-3.8,10.6-10.6
				c-90.3-88.6-179.7-178.3-268-268.9c-25.2-25.8-50.3-51.7-75.3-77.7C1269.5,479.9,1258.9,490.5,1265.6,497.5L1265.6,497.5z"/>
		</g>
	</g>
</g>
<g id="Layer_3">
	<rect x="816.5" y="578" class="st1" width="142" height="255.5"/>
	<rect x="962" y="456" class="st1" width="324" height="61"/>
	<circle class="st10" cx="887.5" cy="506.5" r="143.5"/>
	<circle class="st11" cx="886" cy="507" r="52"/>
	<circle class="st12" cx="1088" cy="637" r="34"/>
	<circle class="st12" cx="1117.5" cy="607.5" r="41.5"/>
	<circle class="st12" cx="1162" cy="668" r="44"/>
	<ellipse class="st12" cx="1239.5" cy="613.5" rx="57.5" ry="59.5"/>
	<circle class="st12" cx="1179" cy="596" r="36"/>
	<circle class="st12" cx="1213.5" cy="673.5" r="31.5"/>
	<circle class="st12" cx="1205.5" cy="556.5" r="23.5"/>
	<circle class="st12" cx="1292.5" cy="609.5" r="29.5"/>
	<circle class="st12" cx="1271.5" cy="662.5" r="25.5"/>
	<circle class="st12" cx="1322" cy="653" r="38"/>
	<circle class="st12" cx="1215" cy="376" r="44"/>
	<ellipse class="st12" cx="1292.5" cy="321.5" rx="57.5" ry="59.5"/>
	<circle class="st12" cx="1232" cy="304" r="36"/>
	<circle class="st12" cx="1266.5" cy="381.5" r="31.5"/>
	<circle class="st12" cx="1258.5" cy="264.5" r="23.5"/>
	<circle class="st12" cx="1345.5" cy="317.5" r="29.5"/>
	<circle class="st12" cx="1324.5" cy="370.5" r="25.5"/>
	<circle class="st12" cx="1158.5" cy="356.5" r="25.5"/>
	<circle class="st12" cx="1375" cy="361" r="38"/>
	<ellipse class="st12" cx="983.5" cy="321.5" rx="57.5" ry="59.5"/>
	<circle class="st12" cx="1059.5" cy="334.5" r="29.5"/>
	<circle class="st12" cx="1008.5" cy="385.5" r="25.5"/>
	<circle class="st12" cx="1059" cy="411" r="38"/>
	<circle class="st12" cx="1159" cy="413" r="38"/>
	<circle class="st12" cx="1078.5" cy="571.5" r="24.5"/>
	<circle class="st12" cx="1037.5" cy="638.5" r="29.5"/>
	<circle class="st12" cx="1075" cy="665" r="26"/>
	<circle class="st12" cx="589.6" cy="640.8" r="44"/>
	
		<ellipse transform="matrix(0.3572 -0.934 0.934 0.3572 -138.8586 1033.4167)" class="st12" cx="681.4" cy="617.6" rx="59.5" ry="57.5"/>
	<circle class="st12" cx="631.1" cy="579.6" r="36"/>
	<circle class="st12" cx="635.7" cy="664.3" r="31.5"/>
	<circle class="st12" cx="670" cy="552.2" r="23.5"/>
	<circle class="st12" cx="732.3" cy="632.8" r="29.5"/>
	<circle class="st12" cx="693.8" cy="674.8" r="25.5"/>
	<circle class="st12" cx="744.4" cy="684" r="38"/>
	<circle class="st12" cx="719" cy="322" r="44"/>
	<ellipse class="st12" cx="801.5" cy="314.5" rx="57.5" ry="59.5"/>
	<circle class="st12" cx="773.5" cy="365.5" r="31.5"/>
	<circle class="st12" cx="646.5" cy="401.5" r="25.5"/>
	<circle class="st12" cx="623" cy="439" r="38"/>
	<circle class="st12" cx="597.5" cy="405.5" r="27.5"/>
	<circle class="st12" cx="614.5" cy="376.5" r="29.5"/>
	<circle class="st12" cx="551.5" cy="382.5" r="30.5"/>
	<circle class="st12" cx="583" cy="335" r="47"/>
	<circle class="st12" cx="521.5" cy="336.5" r="32.5"/>
	<circle class="st12" cx="399.5" cy="540.5" r="38.5"/>
	<circle class="st12" cx="521" cy="560" r="31"/>
	<circle class="st12" cx="460" cy="565" r="44"/>
	<circle class="st12" cx="441" cy="628" r="25"/>
	<circle class="st12" cx="416" cy="591" r="24"/>
	<circle class="st12" cx="395.5" cy="221.5" r="20.5"/>
	<circle class="st12" cx="427" cy="218" r="33"/>
	<circle class="st12" cx="338" cy="326" r="31"/>
	<circle class="st12" cx="325.5" cy="361.5" r="24.5"/>
	<circle class="st12" cx="390.5" cy="807.5" r="32.5"/>
	<circle class="st12" cx="442.5" cy="790.5" r="40.5"/>
	<circle class="st12" cx="494" cy="799" r="40"/>
	<circle class="st12" cx="555.5" cy="792.5" r="34.5"/>
	<circle class="st12" cx="755.5" cy="811.5" r="36.5"/>
	<circle class="st12" cx="705" cy="789" r="27"/>
	<circle class="st12" cx="1021.5" cy="799.5" r="37.5"/>
	<circle class="st12" cx="1064.5" cy="767.5" r="23.5"/>
	<circle class="st12" cx="1109" cy="796" r="34"/>
	<circle class="st12" cx="1162" cy="770" r="29"/>
	<circle class="st12" cx="1171" cy="805" r="38"/>
	<circle class="st12" cx="1205.5" cy="774.5" r="22.5"/>
	<circle class="st12" cx="1345.5" cy="804.5" r="29.5"/>
	<circle class="st12" cx="1385" cy="779" r="29"/>
	<circle class="st12" cx="1438" cy="804" r="40"/>
	<circle class="st12" cx="1408.5" cy="551.5" r="33.5"/>
	<circle class="st12" cx="1432" cy="565" r="32"/>
	<circle class="st12" cx="1438" cy="620" r="26"/>
	<circle class="st12" cx="1074" cy="238" r="37"/>
	<circle class="st12" cx="1123.5" cy="209.5" r="35.5"/>
	<circle class="st12" cx="1158.5" cy="233.5" r="25.5"/>
	<circle class="st12" cx="1227.5" cy="215.5" r="30.5"/>
	<circle class="st12" cx="1454.5" cy="231.5" r="46.5"/>
	<circle class="st12" cx="1502.5" cy="195.5" r="26.5"/>
	<circle class="st12" cx="1545" cy="347" r="35"/>
	<circle class="st12" cx="1587.5" cy="297.5" r="42.5"/>
	<circle class="st12" cx="1545" cy="404" r="35"/>
	<circle class="st12" cx="1555" cy="570" r="37"/>
	<circle class="st12" cx="1513" cy="617" r="32"/>
	<circle class="st12" cx="1557" cy="654" r="30"/>
	<circle class="st12" cx="1566" cy="731" r="21"/>
	<circle class="st12" cx="326.5" cy="715.5" r="42.5"/>
	<circle class="st12" cx="334" cy="651" r="27"/>
	<circle class="st12" cx="331.5" cy="597.5" r="30.5"/>
	<circle class="st12" cx="693.5" cy="223.5" r="38.5"/>
	<circle class="st12" cx="753.5" cy="213.5" r="28.5"/>
	<circle class="st12" cx="898" cy="202" r="28"/>
	<rect x="1059" y="479" class="st12" width="208" height="19"/>
</g>
<g id="Layer_9">
	<rect x="834.5" y="740.5" class="st13" width="104" height="34"/>
</g>
<g id="Layer_10">
	<rect x="321.8" y="796.9" class="st14" width="486.2" height="76.8"/>
	<text transform="matrix(1 0 0 1 321.811 821.5356)" class="st9 st15 st16">WASHINGTON SQUARE PARK</text>
</g>
</svg>
