<svg id="Layer_1" data-name="Layer 1" xmlns="http://www.w3.org/2000/svg" xmlns:xlink="http://www.w3.org/1999/xlink" viewBox="0 0 1366 768"><defs><style>.cls-1{fill:none;}.cls-2{clip-path:url(#clip-path);}.cls-3{fill:#44221e;}.cls-4{fill:#c9baa0;}.cls-5{fill:#b7bbb4;}.cls-6{fill:#261918;}.cls-7{fill:#a49378;}.cls-8{fill:#504441;}.cls-9{fill:#2a3a53;}.cls-10{fill:#711f22;}.cls-11{fill:#7798af;}</style><clipPath id="clip-path"><rect class="cls-1" x="700" y="308.96" width="150.04" height="150.04"/></clipPath></defs><title>SamanthaSimotas_TypographicJourney Artboard 7</title><g class="cls-2"><path class="cls-3" d="M716.25,417.51a64.19,64.19,0,0,1,55.91-95.69,66.18,66.18,0,0,1,6.64.34,66.46,66.46,0,0,1,27.12-5.75c.6,0,1.19,0,1.78,0A75,75,0,0,0,732.81,446a56.34,56.34,0,0,1-16.56-28.5"/><path class="cls-4" d="M804.15,441.64a64.21,64.21,0,0,1-87.9-24.13A56.34,56.34,0,0,0,732.81,446a75,75,0,0,0,93.86-7.62,67,67,0,0,1-20.75,3.28q-.88,0-1.77,0"/><path class="cls-5" d="M807.7,316.44c-.59,0-1.18,0-1.78,0a66.46,66.46,0,0,0-27.12,5.75,64.22,64.22,0,0,1,55,45.82,55.57,55.57,0,0,1,15.28,28.19,75.1,75.1,0,0,0-41.35-79.73"/><path class="cls-5" d="M836.34,386a64.14,64.14,0,0,1-32.19,55.64q.89,0,1.77,0a66.68,66.68,0,0,0,20.75-3.28,74.92,74.92,0,0,0,22.38-42.22A55.57,55.57,0,0,0,833.77,368a64.12,64.12,0,0,1,2.57,18"/><path class="cls-6" d="M708,386a63.85,63.85,0,0,0,8.26,31.51A52,52,0,0,1,715,406.24c0-15.4,6.81-29.42,18-39.9,3.72-8,9.08-13.68,15.23-15.76a64.14,64.14,0,0,1,30.61-28.42,66.18,66.18,0,0,0-6.64-.34A64.17,64.17,0,0,0,708,386"/><path class="cls-7" d="M753.37,436.14c-14.3,0-25.9-19.35-25.9-43.21A63.32,63.32,0,0,1,733,366.34c-11.14,10.48-18,24.49-18,39.9a52,52,0,0,0,1.24,11.27,64.21,64.21,0,0,0,87.9,24.13,66,66,0,0,1-36.84-12.3c-4,4.3-8.81,6.8-13.94,6.8"/><path class="cls-8" d="M748.19,350.58a16,16,0,0,1,11.36.38,76.36,76.36,0,0,1,23-3.5c20.51,0,38.87,8,51.25,20.52a64.22,64.22,0,0,0-55-45.82,64.14,64.14,0,0,0-30.61,28.42"/><path class="cls-5" d="M782.53,347.46a76.38,76.38,0,0,0-23,3.5c11.31,4.63,19.71,21.66,19.71,42,0,15.29-4.76,28.73-12,36.41a66,66,0,0,0,36.84,12.3A64.24,64.24,0,0,0,833.77,368c-12.38-12.56-30.74-20.52-51.24-20.52"/><path class="cls-9" d="M748.19,350.58c-6.15,2.08-11.51,7.8-15.23,15.76a66.54,66.54,0,0,1,12.19-9.06,62.17,62.17,0,0,1,3-6.7"/><path class="cls-10" d="M753.37,436.14c5.13,0,9.92-2.5,13.94-6.8A61.88,61.88,0,0,1,741.13,379a60.62,60.62,0,0,1,4-21.76A66.54,66.54,0,0,0,733,366.34a63.32,63.32,0,0,0-5.49,26.59c0,23.86,11.6,43.21,25.9,43.21"/><path class="cls-10" d="M759.55,351a16,16,0,0,0-11.36-.38,62.17,62.17,0,0,0-3,6.7,71.43,71.43,0,0,1,14.4-6.32"/><path class="cls-11" d="M741.13,379a61.89,61.89,0,0,0,26.18,50.3c7.19-7.68,12-21.12,12-36.41,0-20.31-8.4-37.34-19.71-42a71.43,71.43,0,0,0-14.4,6.32,60.62,60.62,0,0,0-4,21.76"/></g></svg>