<svg id="Layer_1" data-name="Layer 1" xmlns="http://www.w3.org/2000/svg" xmlns:xlink="http://www.w3.org/1999/xlink" viewBox="0 0 1366 768"><defs><style>.cls-1,.cls-9{fill:none;}.cls-2{clip-path:url(#clip-path);}.cls-3{fill:#d84226;}.cls-4{fill:#f5c953;}.cls-5{fill:#ac1e23;}.cls-6{fill:#660a0e;}.cls-7{fill:#881719;}.cls-8{fill:#b81f25;}.cls-9{stroke:#f29821;stroke-miterlimit:10;stroke-width:6px;}</style><clipPath id="clip-path"><rect class="cls-1" x="530" y="155.08" width="367.92" height="367.92"/></clipPath></defs><title>SamanthaSimotas_TypographicJourney Artboard 3</title><g class="cls-2"><path class="cls-3" d="M687.35,328a151,151,0,0,1,178.41,43.86,155.29,155.29,0,0,0-265-139.11c45.5,4.38,81.88,44.54,86.55,95.25"/><path class="cls-4" d="M687.35,328c-4.67-50.71-41.05-90.87-86.55-95.25A155.37,155.37,0,0,0,573.26,404.8H610.1A151.44,151.44,0,0,1,687.35,328"/><path class="cls-5" d="M748,315.28A150.29,150.29,0,0,0,687.35,328c.33,3.64.51,7.33.51,11.07a114.58,114.58,0,0,1-20.25,65.76h187a154.53,154.53,0,0,0,11.11-33A150.63,150.63,0,0,0,748,315.28"/><path class="cls-6" d="M687.35,328A151.44,151.44,0,0,0,610.1,404.8h57.51A114.58,114.58,0,0,0,687.86,339c0-3.74-.18-7.43-.51-11.07"/><path class="cls-5" d="M573.26,404.8a155.22,155.22,0,0,0,25.55,38.41A149.54,149.54,0,0,1,610.1,404.8Z"/><path class="cls-7" d="M817.53,454.72a155.81,155.81,0,0,0,37.12-49.92h-187c-15.86,22.65-39.72,37.95-66.81,40.56a155.78,155.78,0,0,0,41.45,31.43c23.33-20.27,62.58-33.58,107.07-33.58,25,0,48.4,4.22,68.21,11.51"/><path class="cls-6" d="M667.61,404.8H610.1a149.54,149.54,0,0,0-11.29,38.41c.65.72,1.32,1.44,2,2.15,27.09-2.61,51-17.91,66.81-40.56"/><path class="cls-8" d="M817.53,454.72c-19.81-7.29-43.18-11.51-68.21-11.51-44.49,0-83.74,13.31-107.07,33.58a155.32,155.32,0,0,0,175.28-22.07"/><circle class="cls-9" cx="713.96" cy="339.04" r="180.96"/></g></svg>