<svg id="Layer_1" data-name="Layer 1" xmlns="http://www.w3.org/2000/svg" xmlns:xlink="http://www.w3.org/1999/xlink" viewBox="0 0 1366 768"><defs><style>.cls-1{fill:none;}.cls-2{clip-path:url(#clip-path);}.cls-3{fill:#617fc0;}.cls-4{fill:#4151a3;}.cls-5{fill:#4b5eaa;}.cls-6{fill:#293888;}.cls-7{fill:#39479d;}</style><clipPath id="clip-path"><rect class="cls-1" x="514" y="137.32" width="466.69" height="466.68"/></clipPath></defs><title>SamanthaSimotas_TypographicJourney Artboard 6</title><g class="cls-2"><path class="cls-3" d="M939.83,393.31c-13,118.5-112.66,206.45-228.92,207.8,3.61.57,7.25,1.07,10.92,1.47,128.09,14.09,243.35-78.32,257.44-206.41S901,152.82,772.86,138.73a236.59,236.59,0,0,0-28.52-1.4c122.38,19.26,209.18,131.56,195.49,256"/><path class="cls-4" d="M515.42,345.14c-13.69,124.42,73.12,236.72,195.49,256,116.26-1.35,215.89-89.31,228.92-207.8,13.69-124.42-73.11-236.73-195.49-256-116.26,1.36-215.88,89.31-228.92,207.81"/><path class="cls-5" d="M600.43,189.41s-23,17-38.08,39l384.16,20.66s-13.73-22.94-29-38.12Z"/><path class="cls-6" d="M837.78,378.79c0,9.92-31.43,18-70.21,18s-70.2-8.05-70.2-18,31.43-18,70.2-18,70.21,8.05,70.21,18"/><path class="cls-7" d="M563.54,514.36a232.4,232.4,0,0,0,128.3,82.89q5.32,1.31,10.76,2.38a232.61,232.61,0,0,0,174.2-34.88"/></g></svg>