<svg id="Layer_1" data-name="Layer 1" xmlns="http://www.w3.org/2000/svg" xmlns:xlink="http://www.w3.org/1999/xlink" viewBox="0 0 1366 768"><defs><style>.cls-1{fill:none;}.cls-2{clip-path:url(#clip-path);}.cls-3{fill:#831b1a;}.cls-4{fill:#931a1d;}.cls-5{fill:#a12121;}.cls-6{fill:#d24f27;}.cls-7{fill:#ef7b30;}.cls-8{fill:#f09442;}.cls-9{fill:#efac2a;}</style><clipPath id="clip-path"><rect class="cls-1" x="390" y="112.61" width="508.39" height="508.39"/></clipPath></defs><title>SamanthaSimotas_TypographicJourney Artboard 2</title><g class="cls-2"><path class="cls-3" d="M644.2,621c140.39,0,254.19-113.81,254.19-254.2S784.59,112.61,644.2,112.61,390,226.42,390,366.8,503.81,621,644.2,621"/><path class="cls-4" d="M646.16,602.11c130,0,235.35-105.37,235.35-235.36S776.14,131.4,646.16,131.4,410.8,236.77,410.8,366.75,516.17,602.11,646.16,602.11"/><path class="cls-5" d="M646.18,583.37c120.33,0,217.88-97.55,217.88-217.89S766.51,147.6,646.18,147.6,428.29,245.15,428.29,365.48s97.55,217.89,217.89,217.89"/><path class="cls-6" d="M643.29,569.88c113.09,0,204.77-91.68,204.77-204.77S756.38,160.33,643.29,160.33,438.51,252,438.51,365.11s91.68,204.77,204.78,204.77"/><path class="cls-7" d="M642,555.5c105,0,190.21-85.16,190.21-190.21S747.06,175.08,642,175.08,451.8,260.24,451.8,365.29,537,555.5,642,555.5"/><path class="cls-8" d="M640.83,541.27A176.29,176.29,0,1,0,464.54,365,176.28,176.28,0,0,0,640.83,541.27"/><path class="cls-9" d="M639.63,527.47A161.94,161.94,0,1,0,477.69,365.53,161.94,161.94,0,0,0,639.63,527.47"/></g></svg>