<svg id="Layer_1" data-name="Layer 1" xmlns="http://www.w3.org/2000/svg" xmlns:xlink="http://www.w3.org/1999/xlink" viewBox="0 0 1366 768"><defs><style>.cls-1{fill:none;}.cls-2{clip-path:url(#clip-path);}.cls-3{fill:#ce7758;}.cls-4{fill:#ac6850;}.cls-5{fill:#825b4a;}.cls-6{fill:#f68b66;}.cls-7{fill:#8c7062;}.cls-8{fill:#a76955;}.cls-9{fill:#d7be9e;}.cls-10{fill:#96837d;}</style><clipPath id="clip-path"><rect class="cls-1" x="559" y="203" width="309" height="309"/></clipPath></defs><title>SamanthaSimotas_TypographicJourney Artboard 4</title><g class="cls-2"><path class="cls-3" d="M658.05,484.08a144.83,144.83,0,0,1-50.36-45.49H582a155.23,155.23,0,0,0,65.91,58.83,43.7,43.7,0,0,1,10.16-13.34"/><path class="cls-4" d="M584.58,363.91c0-76.7,66-138.87,147.41-138.87,43.47,0,82.53,17.72,109.51,45.91A154.51,154.51,0,0,0,559,357.5c0,3.68.14,7.33.39,10.95h25.28c0-1.51-.09-3-.09-4.54"/><path class="cls-5" d="M584.67,368.45H559.39L582,438.59h25.71a132.55,132.55,0,0,1-23-70.14"/><path class="cls-5" d="M582,438.59l-22.59-70.14A153.52,153.52,0,0,0,582,438.59"/><path class="cls-6" d="M732,225c-81.41,0-147.41,62.17-147.41,138.87,0,1.52,0,3,.09,4.54H867.61c.25-3.62.39-7.27.39-10.95A153.77,153.77,0,0,0,841.5,271c-27-28.19-66-45.91-109.51-45.91"/><path class="cls-7" d="M845,438.59H607.69a144.83,144.83,0,0,0,50.36,45.49c17.58-16.2,51.1-27.14,89.58-27.14,27.21,0,51.94,5.47,70.31,14.4A155.39,155.39,0,0,0,845,438.59"/><path class="cls-8" d="M607.69,438.59H845a153.64,153.64,0,0,0,22.59-70.14H584.67a132.55,132.55,0,0,0,23,70.14"/><path class="cls-9" d="M790.88,491.25a155.8,155.8,0,0,1-132.83-7.17,43.7,43.7,0,0,0-10.16,13.34,154.77,154.77,0,0,0,143-6.17"/><path class="cls-10" d="M658.05,484.08a155.8,155.8,0,0,0,132.83,7.17,155.31,155.31,0,0,0,27.06-19.91c-18.37-8.93-43.1-14.4-70.31-14.4-38.48,0-72,10.94-89.58,27.14"/></g></svg>