<svg id="Layer_1" data-name="Layer 1" xmlns="http://www.w3.org/2000/svg" xmlns:xlink="http://www.w3.org/1999/xlink" viewBox="0 0 1366 768"><defs><style>.cls-1,.cls-13,.cls-14{fill:none;}.cls-2{clip-path:url(#clip-path);}.cls-3{fill:#82695e;}.cls-4{fill:#d7997b;}.cls-5{fill:#9b565b;}.cls-6{fill:#a99286;}.cls-7{fill:#ad7973;}.cls-8{fill:#9d8f89;}.cls-9{fill:#986f6d;}.cls-10{fill:#e0ceb1;}.cls-11{fill:#c7c3bc;}.cls-12{fill:#d67b60;}.cls-13{stroke:#cac3bd;}.cls-13,.cls-14{stroke-miterlimit:10;}.cls-14{stroke:#d5ccc4;}.cls-15{fill:#c8c4bb;}.cls-16{fill:#a37d5a;}</style><clipPath id="clip-path"><rect class="cls-1" x="496" y="126.95" width="462.94" height="462.05"/></clipPath></defs><title>SamanthaSimotas_TypographicJourney Artboard 5</title><g class="cls-2"><path class="cls-3" d="M928,242.46H527q-5.09,8.79-9.41,18.07H937.38q-4.32-9.27-9.42-18.07"/><path class="cls-3" d="M727.47,127a231.22,231.22,0,0,0-182.93,89.47H910.39A231.2,231.2,0,0,0,727.47,127"/><path class="cls-4" d="M910.39,216.42H544.55a230.14,230.14,0,0,0-17.58,26H928a231.4,231.4,0,0,0-17.57-26"/><path class="cls-5" d="M937.38,260.53H517.56a228.86,228.86,0,0,0-15.91,46.53H953.28a228.23,228.23,0,0,0-15.9-46.53"/><path class="cls-6" d="M727.47,589a231.26,231.26,0,0,0,186.84-94.66H540.63A231.25,231.25,0,0,0,727.47,589"/><path class="cls-7" d="M513.94,447.3H941a229.17,229.17,0,0,0,14-46.53H500a229.15,229.15,0,0,0,14,46.53"/><path class="cls-8" d="M531.67,481.22h391.6A230.41,230.41,0,0,0,941,447.3h-427a229.5,229.5,0,0,0,17.73,33.92"/><path class="cls-9" d="M953.28,307.05H501.65q-1.77,7.86-3,15.91H956.29c-.81-5.37-1.83-10.67-3-15.91"/><path class="cls-10" d="M956.29,323H498.64A232.31,232.31,0,0,0,496,358H958.94a232.3,232.3,0,0,0-2.65-35"/><path class="cls-10" d="M496,358a232.09,232.09,0,0,0,4,42.8H955a232.09,232.09,0,0,0,4-42.8Z"/><path class="cls-11" d="M540.63,494.34H914.31q4.7-6.4,9-13.12H531.67c2.83,4.48,5.83,8.85,9,13.12"/><path class="cls-12" d="M579.26,424c21.34,0,38.64-9.36,38.64-20.9s-17.3-20.91-38.64-20.91-38.63,9.36-38.63,20.91,17.3,20.9,38.63,20.9"/><ellipse class="cls-13" cx="586.59" cy="404.42" rx="54.86" ry="24.36"/><path class="cls-14" d="M648.68,407.46c0,17.14-26.18,31-58.47,31s-58.48-13.9-58.48-31,26.18-31,58.48-31S648.68,390.31,648.68,407.46Z"/><path class="cls-15" d="M821.61,470.18c0,3.27-5.08,5.93-11.36,5.93s-11.36-2.66-11.36-5.93,5.08-5.92,11.36-5.92,11.36,2.65,11.36,5.92"/><path class="cls-16" d="M879.56,447.3c0,6-7.29,10.83-16.28,10.83S847,453.28,847,447.3s7.29-10.83,16.29-10.83,16.28,4.85,16.28,10.83"/></g></svg>